<mxfile host="app.diagrams.net" modified="2021-02-05T03:57:58.121Z" agent="5.0 (Windows NT 10.0; Win64; x64) AppleWebKit/537.36 (KHTML, like Gecko) Chrome/88.0.4324.104 Safari/537.36" etag="K6iah1_Ca5YNjHPEQ0tk" version="14.2.9" type="github">
  <diagram id="8EVtw8lAA96qFinSGZAj" name="Page-1">
    <mxGraphModel dx="942" dy="620" grid="1" gridSize="10" guides="1" tooltips="1" connect="1" arrows="1" fold="1" page="1" pageScale="1" pageWidth="827" pageHeight="1169" math="0" shadow="0">
      <root>
        <mxCell id="0" />
        <mxCell id="1" parent="0" />
        <mxCell id="5y0WWafsCiaqcSrYN3-5-1" value="" style="endArrow=classic;html=1;" edge="1" parent="1">
          <mxGeometry width="50" height="50" relative="1" as="geometry">
            <mxPoint x="254" y="278" as="sourcePoint" />
            <mxPoint x="664" y="278" as="targetPoint" />
          </mxGeometry>
        </mxCell>
        <mxCell id="5y0WWafsCiaqcSrYN3-5-3" value="" style="endArrow=none;html=1;" edge="1" parent="1">
          <mxGeometry width="50" height="50" relative="1" as="geometry">
            <mxPoint x="294" y="288" as="sourcePoint" />
            <mxPoint x="294" y="268" as="targetPoint" />
          </mxGeometry>
        </mxCell>
        <mxCell id="5y0WWafsCiaqcSrYN3-5-4" value="" style="endArrow=none;html=1;" edge="1" parent="1">
          <mxGeometry width="50" height="50" relative="1" as="geometry">
            <mxPoint x="334" y="288" as="sourcePoint" />
            <mxPoint x="334" y="268" as="targetPoint" />
          </mxGeometry>
        </mxCell>
        <mxCell id="5y0WWafsCiaqcSrYN3-5-5" value="" style="endArrow=none;html=1;" edge="1" parent="1">
          <mxGeometry width="50" height="50" relative="1" as="geometry">
            <mxPoint x="374" y="288" as="sourcePoint" />
            <mxPoint x="374" y="268" as="targetPoint" />
          </mxGeometry>
        </mxCell>
        <mxCell id="5y0WWafsCiaqcSrYN3-5-6" value="" style="endArrow=none;html=1;" edge="1" parent="1">
          <mxGeometry width="50" height="50" relative="1" as="geometry">
            <mxPoint x="414" y="288" as="sourcePoint" />
            <mxPoint x="414" y="268" as="targetPoint" />
          </mxGeometry>
        </mxCell>
        <mxCell id="5y0WWafsCiaqcSrYN3-5-7" value="" style="endArrow=none;html=1;" edge="1" parent="1">
          <mxGeometry width="50" height="50" relative="1" as="geometry">
            <mxPoint x="454" y="288" as="sourcePoint" />
            <mxPoint x="454" y="268" as="targetPoint" />
          </mxGeometry>
        </mxCell>
        <mxCell id="5y0WWafsCiaqcSrYN3-5-8" value="" style="endArrow=none;html=1;" edge="1" parent="1">
          <mxGeometry width="50" height="50" relative="1" as="geometry">
            <mxPoint x="494" y="288" as="sourcePoint" />
            <mxPoint x="494" y="268" as="targetPoint" />
          </mxGeometry>
        </mxCell>
        <mxCell id="5y0WWafsCiaqcSrYN3-5-9" value="" style="endArrow=none;html=1;" edge="1" parent="1">
          <mxGeometry width="50" height="50" relative="1" as="geometry">
            <mxPoint x="534" y="288" as="sourcePoint" />
            <mxPoint x="534" y="268" as="targetPoint" />
          </mxGeometry>
        </mxCell>
        <mxCell id="5y0WWafsCiaqcSrYN3-5-10" value="" style="endArrow=none;html=1;" edge="1" parent="1">
          <mxGeometry width="50" height="50" relative="1" as="geometry">
            <mxPoint x="574" y="288" as="sourcePoint" />
            <mxPoint x="574" y="268" as="targetPoint" />
          </mxGeometry>
        </mxCell>
        <mxCell id="5y0WWafsCiaqcSrYN3-5-11" value="" style="endArrow=none;html=1;" edge="1" parent="1">
          <mxGeometry width="50" height="50" relative="1" as="geometry">
            <mxPoint x="614" y="288" as="sourcePoint" />
            <mxPoint x="614" y="268" as="targetPoint" />
          </mxGeometry>
        </mxCell>
        <mxCell id="5y0WWafsCiaqcSrYN3-5-12" value="" style="endArrow=classic;html=1;" edge="1" parent="1">
          <mxGeometry width="50" height="50" relative="1" as="geometry">
            <mxPoint x="254" y="238" as="sourcePoint" />
            <mxPoint x="664" y="238" as="targetPoint" />
          </mxGeometry>
        </mxCell>
        <mxCell id="5y0WWafsCiaqcSrYN3-5-13" value="" style="endArrow=none;html=1;" edge="1" parent="1">
          <mxGeometry width="50" height="50" relative="1" as="geometry">
            <mxPoint x="294" y="248" as="sourcePoint" />
            <mxPoint x="294" y="228" as="targetPoint" />
          </mxGeometry>
        </mxCell>
        <mxCell id="5y0WWafsCiaqcSrYN3-5-14" value="" style="endArrow=none;html=1;" edge="1" parent="1">
          <mxGeometry width="50" height="50" relative="1" as="geometry">
            <mxPoint x="334" y="248" as="sourcePoint" />
            <mxPoint x="334" y="228" as="targetPoint" />
          </mxGeometry>
        </mxCell>
        <mxCell id="5y0WWafsCiaqcSrYN3-5-15" value="" style="endArrow=none;html=1;" edge="1" parent="1">
          <mxGeometry width="50" height="50" relative="1" as="geometry">
            <mxPoint x="374" y="248" as="sourcePoint" />
            <mxPoint x="374" y="228" as="targetPoint" />
          </mxGeometry>
        </mxCell>
        <mxCell id="5y0WWafsCiaqcSrYN3-5-16" value="" style="endArrow=none;html=1;" edge="1" parent="1">
          <mxGeometry width="50" height="50" relative="1" as="geometry">
            <mxPoint x="414" y="248" as="sourcePoint" />
            <mxPoint x="414" y="228" as="targetPoint" />
          </mxGeometry>
        </mxCell>
        <mxCell id="5y0WWafsCiaqcSrYN3-5-17" value="" style="endArrow=none;html=1;" edge="1" parent="1">
          <mxGeometry width="50" height="50" relative="1" as="geometry">
            <mxPoint x="454" y="248" as="sourcePoint" />
            <mxPoint x="454" y="228" as="targetPoint" />
          </mxGeometry>
        </mxCell>
        <mxCell id="5y0WWafsCiaqcSrYN3-5-18" value="" style="endArrow=none;html=1;" edge="1" parent="1">
          <mxGeometry width="50" height="50" relative="1" as="geometry">
            <mxPoint x="494" y="248" as="sourcePoint" />
            <mxPoint x="494" y="228" as="targetPoint" />
          </mxGeometry>
        </mxCell>
        <mxCell id="5y0WWafsCiaqcSrYN3-5-19" value="" style="endArrow=none;html=1;" edge="1" parent="1">
          <mxGeometry width="50" height="50" relative="1" as="geometry">
            <mxPoint x="534" y="248" as="sourcePoint" />
            <mxPoint x="534" y="228" as="targetPoint" />
          </mxGeometry>
        </mxCell>
        <mxCell id="5y0WWafsCiaqcSrYN3-5-20" value="" style="endArrow=none;html=1;" edge="1" parent="1">
          <mxGeometry width="50" height="50" relative="1" as="geometry">
            <mxPoint x="574" y="248" as="sourcePoint" />
            <mxPoint x="574" y="228" as="targetPoint" />
          </mxGeometry>
        </mxCell>
        <mxCell id="5y0WWafsCiaqcSrYN3-5-21" value="" style="endArrow=none;html=1;" edge="1" parent="1">
          <mxGeometry width="50" height="50" relative="1" as="geometry">
            <mxPoint x="614" y="248" as="sourcePoint" />
            <mxPoint x="614" y="228" as="targetPoint" />
          </mxGeometry>
        </mxCell>
        <mxCell id="5y0WWafsCiaqcSrYN3-5-22" value="actual waittimes -&amp;gt;" style="text;html=1;align=center;verticalAlign=middle;resizable=0;points=[];autosize=1;" vertex="1" parent="1">
          <mxGeometry x="133" y="228" width="120" height="20" as="geometry" />
        </mxCell>
        <mxCell id="5y0WWafsCiaqcSrYN3-5-23" value="predicted waittimes -&amp;gt;" style="text;html=1;align=center;verticalAlign=middle;resizable=0;points=[];autosize=1;" vertex="1" parent="1">
          <mxGeometry x="124" y="268" width="130" height="20" as="geometry" />
        </mxCell>
        <mxCell id="5y0WWafsCiaqcSrYN3-5-24" value="7:30 -&amp;gt; 5 minutes" style="text;html=1;align=center;verticalAlign=middle;resizable=0;points=[];autosize=1;rotation=270;" vertex="1" parent="1">
          <mxGeometry x="234" y="168" width="110" height="20" as="geometry" />
        </mxCell>
        <mxCell id="5y0WWafsCiaqcSrYN3-5-25" value="7:35 -&amp;gt; 1 minutes" style="text;html=1;align=center;verticalAlign=middle;resizable=0;points=[];autosize=1;rotation=270;" vertex="1" parent="1">
          <mxGeometry x="274" y="168" width="110" height="20" as="geometry" />
        </mxCell>
        <mxCell id="5y0WWafsCiaqcSrYN3-5-26" value="7:40 -&amp;gt; 2 minutes" style="text;html=1;align=center;verticalAlign=middle;resizable=0;points=[];autosize=1;rotation=270;" vertex="1" parent="1">
          <mxGeometry x="314" y="168" width="110" height="20" as="geometry" />
        </mxCell>
        <mxCell id="5y0WWafsCiaqcSrYN3-5-28" value="7:42 -&amp;gt; 3 minutes" style="text;html=1;align=center;verticalAlign=middle;resizable=0;points=[];autosize=1;rotation=270;" vertex="1" parent="1">
          <mxGeometry x="354" y="168" width="110" height="20" as="geometry" />
        </mxCell>
        <mxCell id="5y0WWafsCiaqcSrYN3-5-29" value="7:43 -&amp;gt; 5 minutes" style="text;html=1;align=center;verticalAlign=middle;resizable=0;points=[];autosize=1;rotation=270;" vertex="1" parent="1">
          <mxGeometry x="394" y="168" width="110" height="20" as="geometry" />
        </mxCell>
        <mxCell id="5y0WWafsCiaqcSrYN3-5-30" value="7:44 -&amp;gt; 3 minutes" style="text;html=1;align=center;verticalAlign=middle;resizable=0;points=[];autosize=1;rotation=270;" vertex="1" parent="1">
          <mxGeometry x="434" y="168" width="110" height="20" as="geometry" />
        </mxCell>
        <mxCell id="5y0WWafsCiaqcSrYN3-5-31" value="7:45 -&amp;gt; 9 minutes" style="text;html=1;align=center;verticalAlign=middle;resizable=0;points=[];autosize=1;rotation=270;" vertex="1" parent="1">
          <mxGeometry x="474" y="168" width="110" height="20" as="geometry" />
        </mxCell>
        <mxCell id="5y0WWafsCiaqcSrYN3-5-32" value="7:50 -&amp;gt; 8 minutes" style="text;html=1;align=center;verticalAlign=middle;resizable=0;points=[];autosize=1;rotation=270;" vertex="1" parent="1">
          <mxGeometry x="514" y="168" width="110" height="20" as="geometry" />
        </mxCell>
        <mxCell id="5y0WWafsCiaqcSrYN3-5-33" value="7:55 -&amp;gt; 9 minutes" style="text;html=1;align=center;verticalAlign=middle;resizable=0;points=[];autosize=1;rotation=270;" vertex="1" parent="1">
          <mxGeometry x="554" y="168" width="110" height="20" as="geometry" />
        </mxCell>
        <mxCell id="5y0WWafsCiaqcSrYN3-5-34" value="8:00 -&amp;gt; 8 minutes" style="text;html=1;align=center;verticalAlign=middle;resizable=0;points=[];autosize=1;rotation=270;" vertex="1" parent="1">
          <mxGeometry x="594" y="168" width="110" height="20" as="geometry" />
        </mxCell>
        <mxCell id="5y0WWafsCiaqcSrYN3-5-37" value="7:30 -&amp;gt; 02 minutes" style="text;html=1;align=center;verticalAlign=middle;resizable=0;points=[];autosize=1;rotation=270;" vertex="1" parent="1">
          <mxGeometry x="229" y="341" width="120" height="20" as="geometry" />
        </mxCell>
        <mxCell id="5y0WWafsCiaqcSrYN3-5-38" value="8:00 -&amp;gt; 9 minutes" style="text;html=1;align=center;verticalAlign=middle;resizable=0;points=[];autosize=1;rotation=270;" vertex="1" parent="1">
          <mxGeometry x="594" y="341" width="110" height="20" as="geometry" />
        </mxCell>
        <mxCell id="5y0WWafsCiaqcSrYN3-5-39" value="" style="endArrow=none;html=1;" edge="1" parent="1">
          <mxGeometry width="50" height="50" relative="1" as="geometry">
            <mxPoint x="654" y="248" as="sourcePoint" />
            <mxPoint x="654" y="228" as="targetPoint" />
          </mxGeometry>
        </mxCell>
        <mxCell id="5y0WWafsCiaqcSrYN3-5-40" value="" style="endArrow=none;html=1;" edge="1" parent="1">
          <mxGeometry width="50" height="50" relative="1" as="geometry">
            <mxPoint x="654" y="288" as="sourcePoint" />
            <mxPoint x="654" y="268" as="targetPoint" />
          </mxGeometry>
        </mxCell>
        <mxCell id="5y0WWafsCiaqcSrYN3-5-41" value="" style="endArrow=classic;html=1;" edge="1" parent="1">
          <mxGeometry width="50" height="50" relative="1" as="geometry">
            <mxPoint x="254" y="598" as="sourcePoint" />
            <mxPoint x="664" y="598" as="targetPoint" />
          </mxGeometry>
        </mxCell>
        <mxCell id="5y0WWafsCiaqcSrYN3-5-42" value="" style="endArrow=none;html=1;" edge="1" parent="1">
          <mxGeometry width="50" height="50" relative="1" as="geometry">
            <mxPoint x="294" y="608" as="sourcePoint" />
            <mxPoint x="294" y="588" as="targetPoint" />
          </mxGeometry>
        </mxCell>
        <mxCell id="5y0WWafsCiaqcSrYN3-5-43" value="" style="endArrow=none;html=1;" edge="1" parent="1">
          <mxGeometry width="50" height="50" relative="1" as="geometry">
            <mxPoint x="334" y="608" as="sourcePoint" />
            <mxPoint x="334" y="588" as="targetPoint" />
          </mxGeometry>
        </mxCell>
        <mxCell id="5y0WWafsCiaqcSrYN3-5-44" value="" style="endArrow=none;html=1;" edge="1" parent="1">
          <mxGeometry width="50" height="50" relative="1" as="geometry">
            <mxPoint x="374" y="608" as="sourcePoint" />
            <mxPoint x="374" y="588" as="targetPoint" />
          </mxGeometry>
        </mxCell>
        <mxCell id="5y0WWafsCiaqcSrYN3-5-45" value="" style="endArrow=none;html=1;" edge="1" parent="1">
          <mxGeometry width="50" height="50" relative="1" as="geometry">
            <mxPoint x="414" y="608" as="sourcePoint" />
            <mxPoint x="414" y="588" as="targetPoint" />
          </mxGeometry>
        </mxCell>
        <mxCell id="5y0WWafsCiaqcSrYN3-5-46" value="" style="endArrow=none;html=1;" edge="1" parent="1">
          <mxGeometry width="50" height="50" relative="1" as="geometry">
            <mxPoint x="454" y="608" as="sourcePoint" />
            <mxPoint x="454" y="588" as="targetPoint" />
          </mxGeometry>
        </mxCell>
        <mxCell id="5y0WWafsCiaqcSrYN3-5-47" value="" style="endArrow=none;html=1;" edge="1" parent="1">
          <mxGeometry width="50" height="50" relative="1" as="geometry">
            <mxPoint x="494" y="608" as="sourcePoint" />
            <mxPoint x="494" y="588" as="targetPoint" />
          </mxGeometry>
        </mxCell>
        <mxCell id="5y0WWafsCiaqcSrYN3-5-48" value="" style="endArrow=none;html=1;" edge="1" parent="1">
          <mxGeometry width="50" height="50" relative="1" as="geometry">
            <mxPoint x="534" y="608" as="sourcePoint" />
            <mxPoint x="534" y="588" as="targetPoint" />
          </mxGeometry>
        </mxCell>
        <mxCell id="5y0WWafsCiaqcSrYN3-5-49" value="" style="endArrow=none;html=1;" edge="1" parent="1">
          <mxGeometry width="50" height="50" relative="1" as="geometry">
            <mxPoint x="574" y="608" as="sourcePoint" />
            <mxPoint x="574" y="588" as="targetPoint" />
          </mxGeometry>
        </mxCell>
        <mxCell id="5y0WWafsCiaqcSrYN3-5-50" value="" style="endArrow=none;html=1;" edge="1" parent="1">
          <mxGeometry width="50" height="50" relative="1" as="geometry">
            <mxPoint x="614" y="608" as="sourcePoint" />
            <mxPoint x="614" y="588" as="targetPoint" />
          </mxGeometry>
        </mxCell>
        <mxCell id="5y0WWafsCiaqcSrYN3-5-51" value="" style="endArrow=classic;html=1;" edge="1" parent="1">
          <mxGeometry width="50" height="50" relative="1" as="geometry">
            <mxPoint x="254" y="558" as="sourcePoint" />
            <mxPoint x="664" y="558" as="targetPoint" />
          </mxGeometry>
        </mxCell>
        <mxCell id="5y0WWafsCiaqcSrYN3-5-52" value="" style="endArrow=none;html=1;" edge="1" parent="1">
          <mxGeometry width="50" height="50" relative="1" as="geometry">
            <mxPoint x="294" y="568" as="sourcePoint" />
            <mxPoint x="294" y="548" as="targetPoint" />
          </mxGeometry>
        </mxCell>
        <mxCell id="5y0WWafsCiaqcSrYN3-5-53" value="" style="endArrow=none;html=1;" edge="1" parent="1">
          <mxGeometry width="50" height="50" relative="1" as="geometry">
            <mxPoint x="334" y="568" as="sourcePoint" />
            <mxPoint x="334" y="548" as="targetPoint" />
          </mxGeometry>
        </mxCell>
        <mxCell id="5y0WWafsCiaqcSrYN3-5-54" value="" style="endArrow=none;html=1;" edge="1" parent="1">
          <mxGeometry width="50" height="50" relative="1" as="geometry">
            <mxPoint x="374" y="568" as="sourcePoint" />
            <mxPoint x="374" y="548" as="targetPoint" />
          </mxGeometry>
        </mxCell>
        <mxCell id="5y0WWafsCiaqcSrYN3-5-55" value="" style="endArrow=none;html=1;" edge="1" parent="1">
          <mxGeometry width="50" height="50" relative="1" as="geometry">
            <mxPoint x="414" y="568" as="sourcePoint" />
            <mxPoint x="414" y="548" as="targetPoint" />
          </mxGeometry>
        </mxCell>
        <mxCell id="5y0WWafsCiaqcSrYN3-5-56" value="" style="endArrow=none;html=1;" edge="1" parent="1">
          <mxGeometry width="50" height="50" relative="1" as="geometry">
            <mxPoint x="454" y="568" as="sourcePoint" />
            <mxPoint x="454" y="548" as="targetPoint" />
          </mxGeometry>
        </mxCell>
        <mxCell id="5y0WWafsCiaqcSrYN3-5-57" value="" style="endArrow=none;html=1;" edge="1" parent="1">
          <mxGeometry width="50" height="50" relative="1" as="geometry">
            <mxPoint x="494" y="568" as="sourcePoint" />
            <mxPoint x="494" y="548" as="targetPoint" />
          </mxGeometry>
        </mxCell>
        <mxCell id="5y0WWafsCiaqcSrYN3-5-58" value="" style="endArrow=none;html=1;" edge="1" parent="1">
          <mxGeometry width="50" height="50" relative="1" as="geometry">
            <mxPoint x="534" y="568" as="sourcePoint" />
            <mxPoint x="534" y="548" as="targetPoint" />
          </mxGeometry>
        </mxCell>
        <mxCell id="5y0WWafsCiaqcSrYN3-5-59" value="" style="endArrow=none;html=1;" edge="1" parent="1">
          <mxGeometry width="50" height="50" relative="1" as="geometry">
            <mxPoint x="574" y="568" as="sourcePoint" />
            <mxPoint x="574" y="548" as="targetPoint" />
          </mxGeometry>
        </mxCell>
        <mxCell id="5y0WWafsCiaqcSrYN3-5-60" value="" style="endArrow=none;html=1;" edge="1" parent="1">
          <mxGeometry width="50" height="50" relative="1" as="geometry">
            <mxPoint x="614" y="568" as="sourcePoint" />
            <mxPoint x="614" y="548" as="targetPoint" />
          </mxGeometry>
        </mxCell>
        <mxCell id="5y0WWafsCiaqcSrYN3-5-61" value="actual waittimes -&amp;gt;" style="text;html=1;align=center;verticalAlign=middle;resizable=0;points=[];autosize=1;" vertex="1" parent="1">
          <mxGeometry x="133" y="548" width="120" height="20" as="geometry" />
        </mxCell>
        <mxCell id="5y0WWafsCiaqcSrYN3-5-62" value="predicted waittimes -&amp;gt;" style="text;html=1;align=center;verticalAlign=middle;resizable=0;points=[];autosize=1;" vertex="1" parent="1">
          <mxGeometry x="124" y="588" width="130" height="20" as="geometry" />
        </mxCell>
        <mxCell id="5y0WWafsCiaqcSrYN3-5-63" value="7:30 -&amp;gt; 5 minutes" style="text;html=1;align=center;verticalAlign=middle;resizable=0;points=[];autosize=1;rotation=270;fontColor=#FF0000;" vertex="1" parent="1">
          <mxGeometry x="234" y="488" width="110" height="20" as="geometry" />
        </mxCell>
        <mxCell id="5y0WWafsCiaqcSrYN3-5-64" value="7:35 -&amp;gt; 1 minutes" style="text;html=1;align=center;verticalAlign=middle;resizable=0;points=[];autosize=1;rotation=270;" vertex="1" parent="1">
          <mxGeometry x="274" y="488" width="110" height="20" as="geometry" />
        </mxCell>
        <mxCell id="5y0WWafsCiaqcSrYN3-5-65" value="7:40 -&amp;gt; 2 minutes" style="text;html=1;align=center;verticalAlign=middle;resizable=0;points=[];autosize=1;rotation=270;" vertex="1" parent="1">
          <mxGeometry x="314" y="488" width="110" height="20" as="geometry" />
        </mxCell>
        <mxCell id="5y0WWafsCiaqcSrYN3-5-66" value="7:42 -&amp;gt; 3 minutes" style="text;html=1;align=center;verticalAlign=middle;resizable=0;points=[];autosize=1;rotation=270;" vertex="1" parent="1">
          <mxGeometry x="354" y="488" width="110" height="20" as="geometry" />
        </mxCell>
        <mxCell id="5y0WWafsCiaqcSrYN3-5-67" value="7:43 -&amp;gt; 5 minutes" style="text;html=1;align=center;verticalAlign=middle;resizable=0;points=[];autosize=1;rotation=270;fontColor=#FF0000;" vertex="1" parent="1">
          <mxGeometry x="394" y="488" width="110" height="20" as="geometry" />
        </mxCell>
        <mxCell id="5y0WWafsCiaqcSrYN3-5-68" value="7:44 -&amp;gt; 3 minutes" style="text;html=1;align=center;verticalAlign=middle;resizable=0;points=[];autosize=1;rotation=270;" vertex="1" parent="1">
          <mxGeometry x="434" y="488" width="110" height="20" as="geometry" />
        </mxCell>
        <mxCell id="5y0WWafsCiaqcSrYN3-5-69" value="7:45 -&amp;gt; 9 minutes" style="text;html=1;align=center;verticalAlign=middle;resizable=0;points=[];autosize=1;rotation=270;fontColor=#FF0000;" vertex="1" parent="1">
          <mxGeometry x="474" y="488" width="110" height="20" as="geometry" />
        </mxCell>
        <mxCell id="5y0WWafsCiaqcSrYN3-5-70" value="7:50 -&amp;gt; 8 minutes" style="text;html=1;align=center;verticalAlign=middle;resizable=0;points=[];autosize=1;rotation=270;fontColor=#FF0000;" vertex="1" parent="1">
          <mxGeometry x="514" y="488" width="110" height="20" as="geometry" />
        </mxCell>
        <mxCell id="5y0WWafsCiaqcSrYN3-5-71" value="7:55 -&amp;gt; 9 minutes" style="text;html=1;align=center;verticalAlign=middle;resizable=0;points=[];autosize=1;rotation=270;fontColor=#FF0000;" vertex="1" parent="1">
          <mxGeometry x="554" y="488" width="110" height="20" as="geometry" />
        </mxCell>
        <mxCell id="5y0WWafsCiaqcSrYN3-5-72" value="8:00 -&amp;gt; 8 minutes" style="text;html=1;align=center;verticalAlign=middle;resizable=0;points=[];autosize=1;rotation=270;" vertex="1" parent="1">
          <mxGeometry x="594" y="488" width="110" height="20" as="geometry" />
        </mxCell>
        <mxCell id="5y0WWafsCiaqcSrYN3-5-73" value="7:30 -&amp;gt; 02 minutes" style="text;html=1;align=center;verticalAlign=middle;resizable=0;points=[];autosize=1;rotation=270;fontColor=#FF0000;" vertex="1" parent="1">
          <mxGeometry x="229" y="661" width="120" height="20" as="geometry" />
        </mxCell>
        <mxCell id="5y0WWafsCiaqcSrYN3-5-74" value="8:00 -&amp;gt; 9 minutes" style="text;html=1;align=center;verticalAlign=middle;resizable=0;points=[];autosize=1;rotation=270;" vertex="1" parent="1">
          <mxGeometry x="594" y="661" width="110" height="20" as="geometry" />
        </mxCell>
        <mxCell id="5y0WWafsCiaqcSrYN3-5-75" value="" style="endArrow=none;html=1;" edge="1" parent="1">
          <mxGeometry width="50" height="50" relative="1" as="geometry">
            <mxPoint x="654" y="568" as="sourcePoint" />
            <mxPoint x="654" y="548" as="targetPoint" />
          </mxGeometry>
        </mxCell>
        <mxCell id="5y0WWafsCiaqcSrYN3-5-76" value="" style="endArrow=none;html=1;" edge="1" parent="1">
          <mxGeometry width="50" height="50" relative="1" as="geometry">
            <mxPoint x="654" y="608" as="sourcePoint" />
            <mxPoint x="654" y="588" as="targetPoint" />
          </mxGeometry>
        </mxCell>
        <mxCell id="5y0WWafsCiaqcSrYN3-5-77" value="&amp;nbsp; &amp;nbsp; &amp;nbsp;alternative 1: we only &lt;br&gt;&amp;nbsp; &amp;nbsp; &amp;nbsp;compare actual with the&lt;br&gt;closest older&lt;br&gt;&amp;nbsp;prediction (7:30)" style="ellipse;shape=cloud;whiteSpace=wrap;html=1;align=center;fontColor=#FF0000;" vertex="1" parent="1">
          <mxGeometry x="10" y="430" width="200" height="110" as="geometry" />
        </mxCell>
        <mxCell id="5y0WWafsCiaqcSrYN3-5-80" value="" style="endArrow=classic;html=1;" edge="1" parent="1">
          <mxGeometry width="50" height="50" relative="1" as="geometry">
            <mxPoint x="254" y="918" as="sourcePoint" />
            <mxPoint x="664" y="918" as="targetPoint" />
          </mxGeometry>
        </mxCell>
        <mxCell id="5y0WWafsCiaqcSrYN3-5-81" value="" style="endArrow=none;html=1;" edge="1" parent="1">
          <mxGeometry width="50" height="50" relative="1" as="geometry">
            <mxPoint x="294" y="928" as="sourcePoint" />
            <mxPoint x="294" y="908" as="targetPoint" />
          </mxGeometry>
        </mxCell>
        <mxCell id="5y0WWafsCiaqcSrYN3-5-82" value="" style="endArrow=none;html=1;" edge="1" parent="1">
          <mxGeometry width="50" height="50" relative="1" as="geometry">
            <mxPoint x="334" y="928" as="sourcePoint" />
            <mxPoint x="334" y="908" as="targetPoint" />
          </mxGeometry>
        </mxCell>
        <mxCell id="5y0WWafsCiaqcSrYN3-5-83" value="" style="endArrow=none;html=1;" edge="1" parent="1">
          <mxGeometry width="50" height="50" relative="1" as="geometry">
            <mxPoint x="374" y="928" as="sourcePoint" />
            <mxPoint x="374" y="908" as="targetPoint" />
          </mxGeometry>
        </mxCell>
        <mxCell id="5y0WWafsCiaqcSrYN3-5-84" value="" style="endArrow=none;html=1;" edge="1" parent="1">
          <mxGeometry width="50" height="50" relative="1" as="geometry">
            <mxPoint x="414" y="928" as="sourcePoint" />
            <mxPoint x="414" y="908" as="targetPoint" />
          </mxGeometry>
        </mxCell>
        <mxCell id="5y0WWafsCiaqcSrYN3-5-85" value="" style="endArrow=none;html=1;" edge="1" parent="1">
          <mxGeometry width="50" height="50" relative="1" as="geometry">
            <mxPoint x="454" y="928" as="sourcePoint" />
            <mxPoint x="454" y="908" as="targetPoint" />
          </mxGeometry>
        </mxCell>
        <mxCell id="5y0WWafsCiaqcSrYN3-5-86" value="" style="endArrow=none;html=1;" edge="1" parent="1">
          <mxGeometry width="50" height="50" relative="1" as="geometry">
            <mxPoint x="494" y="928" as="sourcePoint" />
            <mxPoint x="494" y="908" as="targetPoint" />
          </mxGeometry>
        </mxCell>
        <mxCell id="5y0WWafsCiaqcSrYN3-5-87" value="" style="endArrow=none;html=1;" edge="1" parent="1">
          <mxGeometry width="50" height="50" relative="1" as="geometry">
            <mxPoint x="534" y="928" as="sourcePoint" />
            <mxPoint x="534" y="908" as="targetPoint" />
          </mxGeometry>
        </mxCell>
        <mxCell id="5y0WWafsCiaqcSrYN3-5-88" value="" style="endArrow=none;html=1;" edge="1" parent="1">
          <mxGeometry width="50" height="50" relative="1" as="geometry">
            <mxPoint x="574" y="928" as="sourcePoint" />
            <mxPoint x="574" y="908" as="targetPoint" />
          </mxGeometry>
        </mxCell>
        <mxCell id="5y0WWafsCiaqcSrYN3-5-89" value="" style="endArrow=none;html=1;" edge="1" parent="1">
          <mxGeometry width="50" height="50" relative="1" as="geometry">
            <mxPoint x="614" y="928" as="sourcePoint" />
            <mxPoint x="614" y="908" as="targetPoint" />
          </mxGeometry>
        </mxCell>
        <mxCell id="5y0WWafsCiaqcSrYN3-5-90" value="" style="endArrow=classic;html=1;" edge="1" parent="1">
          <mxGeometry width="50" height="50" relative="1" as="geometry">
            <mxPoint x="254" y="878" as="sourcePoint" />
            <mxPoint x="664" y="878" as="targetPoint" />
          </mxGeometry>
        </mxCell>
        <mxCell id="5y0WWafsCiaqcSrYN3-5-91" value="" style="endArrow=none;html=1;" edge="1" parent="1">
          <mxGeometry width="50" height="50" relative="1" as="geometry">
            <mxPoint x="294" y="888" as="sourcePoint" />
            <mxPoint x="294" y="868" as="targetPoint" />
          </mxGeometry>
        </mxCell>
        <mxCell id="5y0WWafsCiaqcSrYN3-5-92" value="" style="endArrow=none;html=1;" edge="1" parent="1">
          <mxGeometry width="50" height="50" relative="1" as="geometry">
            <mxPoint x="334" y="888" as="sourcePoint" />
            <mxPoint x="334" y="868" as="targetPoint" />
          </mxGeometry>
        </mxCell>
        <mxCell id="5y0WWafsCiaqcSrYN3-5-93" value="" style="endArrow=none;html=1;" edge="1" parent="1">
          <mxGeometry width="50" height="50" relative="1" as="geometry">
            <mxPoint x="374" y="888" as="sourcePoint" />
            <mxPoint x="374" y="868" as="targetPoint" />
          </mxGeometry>
        </mxCell>
        <mxCell id="5y0WWafsCiaqcSrYN3-5-94" value="" style="endArrow=none;html=1;" edge="1" parent="1">
          <mxGeometry width="50" height="50" relative="1" as="geometry">
            <mxPoint x="414" y="888" as="sourcePoint" />
            <mxPoint x="414" y="868" as="targetPoint" />
          </mxGeometry>
        </mxCell>
        <mxCell id="5y0WWafsCiaqcSrYN3-5-95" value="" style="endArrow=none;html=1;" edge="1" parent="1">
          <mxGeometry width="50" height="50" relative="1" as="geometry">
            <mxPoint x="454" y="888" as="sourcePoint" />
            <mxPoint x="454" y="868" as="targetPoint" />
          </mxGeometry>
        </mxCell>
        <mxCell id="5y0WWafsCiaqcSrYN3-5-96" value="" style="endArrow=none;html=1;" edge="1" parent="1">
          <mxGeometry width="50" height="50" relative="1" as="geometry">
            <mxPoint x="494" y="888" as="sourcePoint" />
            <mxPoint x="494" y="868" as="targetPoint" />
          </mxGeometry>
        </mxCell>
        <mxCell id="5y0WWafsCiaqcSrYN3-5-97" value="" style="endArrow=none;html=1;" edge="1" parent="1">
          <mxGeometry width="50" height="50" relative="1" as="geometry">
            <mxPoint x="534" y="888" as="sourcePoint" />
            <mxPoint x="534" y="868" as="targetPoint" />
          </mxGeometry>
        </mxCell>
        <mxCell id="5y0WWafsCiaqcSrYN3-5-98" value="" style="endArrow=none;html=1;" edge="1" parent="1">
          <mxGeometry width="50" height="50" relative="1" as="geometry">
            <mxPoint x="574" y="888" as="sourcePoint" />
            <mxPoint x="574" y="868" as="targetPoint" />
          </mxGeometry>
        </mxCell>
        <mxCell id="5y0WWafsCiaqcSrYN3-5-99" value="" style="endArrow=none;html=1;" edge="1" parent="1">
          <mxGeometry width="50" height="50" relative="1" as="geometry">
            <mxPoint x="614" y="888" as="sourcePoint" />
            <mxPoint x="614" y="868" as="targetPoint" />
          </mxGeometry>
        </mxCell>
        <mxCell id="5y0WWafsCiaqcSrYN3-5-100" value="actual waittimes -&amp;gt;" style="text;html=1;align=center;verticalAlign=middle;resizable=0;points=[];autosize=1;" vertex="1" parent="1">
          <mxGeometry x="133" y="868" width="120" height="20" as="geometry" />
        </mxCell>
        <mxCell id="5y0WWafsCiaqcSrYN3-5-101" value="predicted waittimes -&amp;gt;" style="text;html=1;align=center;verticalAlign=middle;resizable=0;points=[];autosize=1;" vertex="1" parent="1">
          <mxGeometry x="124" y="908" width="130" height="20" as="geometry" />
        </mxCell>
        <mxCell id="5y0WWafsCiaqcSrYN3-5-102" value="7:30 -&amp;gt; 5 minutes" style="text;html=1;align=center;verticalAlign=middle;resizable=0;points=[];autosize=1;rotation=270;fontColor=#00A300;" vertex="1" parent="1">
          <mxGeometry x="234" y="808" width="110" height="20" as="geometry" />
        </mxCell>
        <mxCell id="5y0WWafsCiaqcSrYN3-5-103" value="7:35 -&amp;gt; 1 minutes" style="text;html=1;align=center;verticalAlign=middle;resizable=0;points=[];autosize=1;rotation=270;" vertex="1" parent="1">
          <mxGeometry x="274" y="808" width="110" height="20" as="geometry" />
        </mxCell>
        <mxCell id="5y0WWafsCiaqcSrYN3-5-104" value="7:40 -&amp;gt; 2 minutes" style="text;html=1;align=center;verticalAlign=middle;resizable=0;points=[];autosize=1;rotation=270;" vertex="1" parent="1">
          <mxGeometry x="314" y="808" width="110" height="20" as="geometry" />
        </mxCell>
        <mxCell id="5y0WWafsCiaqcSrYN3-5-105" value="7:42 -&amp;gt; 3 minutes" style="text;html=1;align=center;verticalAlign=middle;resizable=0;points=[];autosize=1;rotation=270;" vertex="1" parent="1">
          <mxGeometry x="354" y="808" width="110" height="20" as="geometry" />
        </mxCell>
        <mxCell id="5y0WWafsCiaqcSrYN3-5-106" value="7:43 -&amp;gt; 5 minutes" style="text;html=1;align=center;verticalAlign=middle;resizable=0;points=[];autosize=1;rotation=270;fontColor=#00A300;" vertex="1" parent="1">
          <mxGeometry x="394" y="808" width="110" height="20" as="geometry" />
        </mxCell>
        <mxCell id="5y0WWafsCiaqcSrYN3-5-107" value="7:44 -&amp;gt; 3 minutes" style="text;html=1;align=center;verticalAlign=middle;resizable=0;points=[];autosize=1;rotation=270;" vertex="1" parent="1">
          <mxGeometry x="434" y="808" width="110" height="20" as="geometry" />
        </mxCell>
        <mxCell id="5y0WWafsCiaqcSrYN3-5-108" value="7:45 -&amp;gt; 4 minutes" style="text;html=1;align=center;verticalAlign=middle;resizable=0;points=[];autosize=1;rotation=270;fontColor=#FF0000;" vertex="1" parent="1">
          <mxGeometry x="474" y="808" width="110" height="20" as="geometry" />
        </mxCell>
        <mxCell id="5y0WWafsCiaqcSrYN3-5-109" value="7:50 -&amp;gt; 8 minutes" style="text;html=1;align=center;verticalAlign=middle;resizable=0;points=[];autosize=1;rotation=270;" vertex="1" parent="1">
          <mxGeometry x="514" y="808" width="110" height="20" as="geometry" />
        </mxCell>
        <mxCell id="5y0WWafsCiaqcSrYN3-5-110" value="7:55 -&amp;gt; 9 minutes" style="text;html=1;align=center;verticalAlign=middle;resizable=0;points=[];autosize=1;rotation=270;" vertex="1" parent="1">
          <mxGeometry x="554" y="808" width="110" height="20" as="geometry" />
        </mxCell>
        <mxCell id="5y0WWafsCiaqcSrYN3-5-111" value="8:00 -&amp;gt; 8 minutes" style="text;html=1;align=center;verticalAlign=middle;resizable=0;points=[];autosize=1;rotation=270;" vertex="1" parent="1">
          <mxGeometry x="594" y="808" width="110" height="20" as="geometry" />
        </mxCell>
        <mxCell id="5y0WWafsCiaqcSrYN3-5-112" value="7:30 -&amp;gt; 02 minutes" style="text;html=1;align=center;verticalAlign=middle;resizable=0;points=[];autosize=1;rotation=270;fontColor=#00A300;" vertex="1" parent="1">
          <mxGeometry x="229" y="981" width="120" height="20" as="geometry" />
        </mxCell>
        <mxCell id="5y0WWafsCiaqcSrYN3-5-113" value="8:00 -&amp;gt; 9 minutes" style="text;html=1;align=center;verticalAlign=middle;resizable=0;points=[];autosize=1;rotation=270;fontColor=#FF0000;" vertex="1" parent="1">
          <mxGeometry x="594" y="981" width="110" height="20" as="geometry" />
        </mxCell>
        <mxCell id="5y0WWafsCiaqcSrYN3-5-114" value="" style="endArrow=none;html=1;" edge="1" parent="1">
          <mxGeometry width="50" height="50" relative="1" as="geometry">
            <mxPoint x="654" y="888" as="sourcePoint" />
            <mxPoint x="654" y="868" as="targetPoint" />
          </mxGeometry>
        </mxCell>
        <mxCell id="5y0WWafsCiaqcSrYN3-5-115" value="" style="endArrow=none;html=1;" edge="1" parent="1">
          <mxGeometry width="50" height="50" relative="1" as="geometry">
            <mxPoint x="654" y="928" as="sourcePoint" />
            <mxPoint x="654" y="908" as="targetPoint" />
          </mxGeometry>
        </mxCell>
        <mxCell id="5y0WWafsCiaqcSrYN3-5-116" value="&lt;font&gt;&amp;nbsp; &amp;nbsp; &amp;nbsp;alternative 2: we&lt;br&gt;&amp;nbsp; &amp;nbsp; &amp;nbsp;compare actual with the&lt;br&gt;closest&lt;br&gt;&amp;nbsp; &amp;nbsp; &amp;nbsp; &amp;nbsp; &amp;nbsp;prediction (can be future or past)&lt;/font&gt;" style="ellipse;shape=cloud;whiteSpace=wrap;html=1;align=center;fontColor=#00A300;" vertex="1" parent="1">
          <mxGeometry x="10" y="740" width="200" height="110" as="geometry" />
        </mxCell>
        <mxCell id="5y0WWafsCiaqcSrYN3-5-117" value="&lt;font color=&quot;#000000&quot; size=&quot;1&quot;&gt;&lt;b style=&quot;font-size: 14px&quot;&gt;Chart of differences of result depending on the approach to analyze anomalies&lt;/b&gt;&lt;/font&gt;" style="text;html=1;align=center;verticalAlign=middle;resizable=0;points=[];autosize=1;fontColor=#FF0000;" vertex="1" parent="1">
          <mxGeometry x="144" y="10" width="540" height="20" as="geometry" />
        </mxCell>
        <mxCell id="5y0WWafsCiaqcSrYN3-5-118" value="&lt;font color=&quot;#000000&quot;&gt;&amp;nbsp; Sample comparison &lt;br&gt;&amp;nbsp; between actual and &lt;br&gt;&amp;nbsp; predicted waittimes&lt;/font&gt;" style="ellipse;shape=cloud;whiteSpace=wrap;html=1;align=center;fontColor=#FF0000;" vertex="1" parent="1">
          <mxGeometry x="10" y="80" width="200" height="110" as="geometry" />
        </mxCell>
      </root>
    </mxGraphModel>
  </diagram>
</mxfile>
